<?xml version="1.0" encoding="utf-8"?>
<!-- Generator: Adobe Illustrator 16.0.4, SVG Export Plug-In . SVG Version: 6.00 Build 0)  -->
<!DOCTYPE svg PUBLIC "-//W3C//DTD SVG 1.1//EN" "http://www.w3.org/Graphics/SVG/1.1/DTD/svg11.dtd">
<svg version="1.1" id="Ebene_1" xmlns="http://www.w3.org/2000/svg" xmlns:xlink="http://www.w3.org/1999/xlink" x="0px" y="0px"
	 width="250px" height="250px" viewBox="0 0 250 250" enable-background="new 0 0 250 250" xml:space="preserve">
<rect fill="#F5F5F5" width="250" height="250"/>
<g>
	<path fill="#D8D8D8" d="M227.818,207.245c-1.045-5.847-2.369-11.259-3.965-16.252c-1.598-4.994-3.742-9.859-6.441-14.606
		c-2.697-4.74-5.789-8.785-9.283-12.131c-3.501-3.343-7.768-6.015-12.809-8.012c-5.045-1.996-10.611-2.995-16.7-2.995
		c-0.897,0-2.994,1.074-6.291,3.219c-3.295,2.15-7.017,4.546-11.158,7.188c-4.146,2.646-9.537,5.044-16.176,7.189
		c-6.642,2.148-13.308,3.221-19.995,3.221c-6.689,0-13.354-1.071-19.995-3.221c-6.643-2.146-12.036-4.543-16.176-7.189
		c-4.148-2.643-7.863-5.037-11.158-7.188c-3.295-2.145-5.391-3.219-6.291-3.219c-6.095,0-11.661,0.999-16.701,2.995
		c-5.041,1.997-9.313,4.669-12.803,8.012c-3.501,3.346-6.592,7.391-9.287,12.131c-2.696,4.747-4.847,9.612-6.441,14.606
		c-1.597,4.993-2.922,10.405-3.971,16.252c-1.046,5.839-1.748,11.28-2.096,16.323c-0.349,5.043-0.524,10.213-0.524,15.5
		c0,3.925,0.432,7.55,1.211,10.932h208.464c0.781-3.382,1.213-7.007,1.213-10.932c0-5.287-0.176-10.457-0.526-15.5
		C229.566,218.525,228.869,213.084,227.818,207.245z"/>
	<path fill="#D8D8D8" d="M125,162.834c15.875,0,29.43-5.617,40.666-16.85c11.232-11.235,16.85-24.789,16.85-40.667
		c0-15.877-5.617-29.429-16.85-40.663C154.43,53.422,140.875,47.804,125,47.804s-29.434,5.619-40.664,16.852
		C73.1,75.89,67.484,89.441,67.484,105.318c0,15.878,5.615,29.431,16.852,40.667C95.566,157.217,109.125,162.834,125,162.834z"/>
</g>
</svg>
