<?xml version="1.0" encoding="utf-8"?>
<!-- Generator: Adobe Illustrator 26.0.2, SVG Export Plug-In . SVG Version: 6.00 Build 0)  -->
<svg version="1.1" id="レイヤー_1" xmlns="http://www.w3.org/2000/svg" xmlns:xlink="http://www.w3.org/1999/xlink" x="0px"
	 y="0px" viewBox="0 0 100 100" style="enable-background:new 0 0 100 100;" xml:space="preserve">
<style type="text/css">
	.st0{fill:#76726A;}
</style>
<path id="Icon_open-menu" class="st0" d="M0-0.26V9.1h100v-9.36H0z M0,27.55v9.36h100v-9.36H0z M0,55.64V65h100v-9.37L0,55.64z"/>
<g>
	<path class="st0" d="M-0.27,78.1h4.84l3.72,10.24c0.47,1.36,0.89,2.8,1.33,4.19h0.15c0.47-1.39,0.86-2.83,1.33-4.19l3.63-10.24
		h4.84v21.87h-3.98v-9.12c0-2.07,0.32-5.1,0.56-7.17h-0.15l-1.77,5.13l-3.36,9.18H8.35l-3.39-9.18l-1.74-5.13H3.1
		c0.21,2.07,0.56,5.11,0.56,7.17v9.12h-3.92V78.1z"/>
	<path class="st0" d="M30.84,78.1h13.4v3.66h-9.03v5.05h7.67v3.66h-7.67v5.84h9.35v3.66H30.84V78.1z"/>
	<path class="st0" d="M54.89,78.1h4.46l6.34,11.66l2.18,4.72h0.15c-0.21-2.27-0.56-5.16-0.56-7.64V78.1h4.13v21.87h-4.43
		l-6.32-11.69l-2.21-4.69h-0.15c0.21,2.36,0.53,5.1,0.53,7.61v8.76h-4.13V78.1z"/>
	<path class="st0" d="M82.78,90.14V78.1h4.37v12.42c0,4.54,1.59,6.08,4.13,6.08c2.6,0,4.25-1.53,4.25-6.08V78.1h4.19v12.04
		c0,7.26-3.1,10.24-8.44,10.24C85.97,100.38,82.78,97.4,82.78,90.14z"/>
</g>
</svg>
