<?xml version="1.0" encoding="UTF-8"?><svg id="a" xmlns="http://www.w3.org/2000/svg" viewBox="0 0 28.8 34.57"><defs><style>.c{fill:#fff500;}</style></defs><path id="b" class="c" d="M27.48,14.41h-1.56v-6.22C25.92,4.1,21.82,0,17.73,0h-6.83C6.82,0,2.88,4.1,2.88,8.19v6.22H1.16c-.59,.14-1.04,.61-1.16,1.2v18.33c0,.43,.67,.63,1.16,.63H27.48c.49,0,1.33-.2,1.33-.63V15.6c-.19-.61-.7-1.07-1.33-1.2h0Zm-9.68,17.29h-6.95l1.45-7.18c-.92-.7-1.46-1.8-1.46-2.96,0-1.93,1.55-3.5,3.47-3.52,1.89-.03,3.45,1.49,3.47,3.38v.03c0,1.2-.53,2.33-1.46,3.09l1.46,7.16Zm3.09-17.28H7.92v-6.22c-.11-1.62,1.12-3.03,2.74-3.14,.1,0,.21,0,.31,0h6.69c1.7-.08,3.14,1.23,3.22,2.93,0,.07,0,.14,0,.21v6.22Z"/></svg>